<?xml version="1.0" encoding="UTF-8" standalone="no"?>
<!-- Created with Inkscape (http://www.inkscape.org/) -->

<svg
   version="1.1"
   id="svg2"
   xml:space="preserve"
   width="629.45331"
   height="621.26666"
   viewBox="0 0 629.45331 621.26666"
   sodipodi:docname="umm-al-quwain-seeklogo.com.eps"
   xmlns:inkscape="http://www.inkscape.org/namespaces/inkscape"
   xmlns:sodipodi="http://sodipodi.sourceforge.net/DTD/sodipodi-0.dtd"
   xmlns="http://www.w3.org/2000/svg"
   xmlns:svg="http://www.w3.org/2000/svg"><defs
     id="defs6"><clipPath
       clipPathUnits="userSpaceOnUse"
       id="clipPath44"><path
         d="m 1895.9,3769.29 c 0,0 286.48,617.95 1089.47,774.24 0,0 1091.11,-40.24 1597.89,-1222.96 362.61,-904.41 -97.85,-1679.28 -168.16,-1749.59 0,0 382.54,1360.47 -1050.58,2034.55 0,0 -602.79,336.92 -1468.62,163.76 z"
         id="path42" /></clipPath><linearGradient
       x1="0"
       y1="0"
       x2="1"
       y2="0"
       gradientUnits="userSpaceOnUse"
       gradientTransform="matrix(2825.01,0,0,-2825.01,1895.9,3057.25)"
       spreadMethod="pad"
       id="linearGradient56"><stop
         style="stop-opacity:1;stop-color:#971a1f"
         offset="0"
         id="stop46" /><stop
         style="stop-opacity:1;stop-color:#971a1f"
         offset="0.186042"
         id="stop48" /><stop
         style="stop-opacity:1;stop-color:#ed1c24"
         offset="0.489348"
         id="stop50" /><stop
         style="stop-opacity:1;stop-color:#d41e25"
         offset="0.69843"
         id="stop52" /><stop
         style="stop-opacity:1;stop-color:#971a1f"
         offset="1"
         id="stop54" /></linearGradient><clipPath
       clipPathUnits="userSpaceOnUse"
       id="clipPath70"><path
         d="m 1150.78,3467.26 c 0,0 276.33,194 745.12,302.04 0,0 305.45,621.59 1089.47,774.23 0,0 -739.72,88.8 -1328.43,-325.17 0,0 -379.89,-371.62 -506.16,-751.1 z"
         id="path68" /></clipPath><linearGradient
       x1="0"
       y1="0"
       x2="1"
       y2="0"
       gradientUnits="userSpaceOnUse"
       gradientTransform="matrix(1834.6,0,0,-1834.6,1150.78,4009.39)"
       spreadMethod="pad"
       id="linearGradient80"><stop
         style="stop-opacity:1;stop-color:#acadaa"
         offset="0"
         id="stop72" /><stop
         style="stop-opacity:1;stop-color:#ffffff"
         offset="0.3199"
         id="stop74" /><stop
         style="stop-opacity:1;stop-color:#ffffff"
         offset="0.685926"
         id="stop76" /><stop
         style="stop-opacity:1;stop-color:#acadaa"
         offset="1"
         id="stop78" /></linearGradient><clipPath
       clipPathUnits="userSpaceOnUse"
       id="clipPath90"><path
         d="m 1656.94,4218.36 c 0,0 -1075.186,-985.73 -544.89,-2456.16 466.35,-918.981 884.46,-1200.591 1711.5,-1430.38 0,0 -1379.19,-11.5 -1993.179,1296.55 -613.988,1308.06 409.619,2398.37 826.569,2589.99 z"
         id="path88" /></clipPath><linearGradient
       x1="0"
       y1="0"
       x2="1"
       y2="0"
       gradientUnits="userSpaceOnUse"
       gradientTransform="matrix(2184.53,0,0,-2184.53,639.016,2275.09)"
       spreadMethod="pad"
       id="linearGradient100"><stop
         style="stop-opacity:1;stop-color:#235025"
         offset="0"
         id="stop92" /><stop
         style="stop-opacity:1;stop-color:#28883c"
         offset="0.3199"
         id="stop94" /><stop
         style="stop-opacity:1;stop-color:#28883c"
         offset="0.685926"
         id="stop96" /><stop
         style="stop-opacity:1;stop-color:#235025"
         offset="1"
         id="stop98" /></linearGradient><clipPath
       clipPathUnits="userSpaceOnUse"
       id="clipPath110"><path
         d="m 1002.84,1013.26 c 0,0 -1015.7931,1349.18 -189.91,2611.92 275.29,489.8 758.53,895.42 1877.5,1004.96 0,0 -1748.875,331.92 -2369.071,-1235.15 0,0 -534.324,-1385.51 681.481,-2381.73 z"
         id="path108" /></clipPath><linearGradient
       x1="0"
       y1="0"
       x2="1"
       y2="0"
       gradientUnits="userSpaceOnUse"
       gradientTransform="matrix(2485.99,0,0,-2485.99,204.436,2836.39)"
       spreadMethod="pad"
       id="linearGradient120"><stop
         style="stop-opacity:1;stop-color:#211c1c"
         offset="0"
         id="stop112" /><stop
         style="stop-opacity:1;stop-color:#100f0d"
         offset="0.272593"
         id="stop114" /><stop
         style="stop-opacity:1;stop-color:#100f0d"
         offset="0.628354"
         id="stop116" /><stop
         style="stop-opacity:1;stop-color:#211c1c"
         offset="1"
         id="stop118" /></linearGradient><clipPath
       clipPathUnits="userSpaceOnUse"
       id="clipPath130"><path
         d="m 100.684,3002.28 c 0,0 -222.196,-1612.5 1266.786,-2431.069 C 2030.58,250.27 2509.22,68.9609 3614.6,413.742 c 0,0 -1276.86,-950.902 -2626.912,30.457 C -362.363,1425.57 44.9063,2694.3 100.684,3002.28 Z"
         id="path128" /></clipPath><linearGradient
       x1="0"
       y1="0"
       x2="1"
       y2="0"
       gradientUnits="userSpaceOnUse"
       gradientTransform="matrix(3614.6,0,0,-3614.6,0,1501.14)"
       spreadMethod="pad"
       id="linearGradient142"><stop
         style="stop-opacity:1;stop-color:#971a1f"
         offset="0"
         id="stop132" /><stop
         style="stop-opacity:1;stop-color:#971a1f"
         offset="0.186042"
         id="stop134" /><stop
         style="stop-opacity:1;stop-color:#ed1c24"
         offset="0.489348"
         id="stop136" /><stop
         style="stop-opacity:1;stop-color:#d41e25"
         offset="0.69843"
         id="stop138" /><stop
         style="stop-opacity:1;stop-color:#971a1f"
         offset="1"
         id="stop140" /></linearGradient></defs><sodipodi:namedview
     id="namedview4"
     pagecolor="#ffffff"
     bordercolor="#666666"
     borderopacity="1.0"
     inkscape:pageshadow="2"
     inkscape:pageopacity="0.0"
     inkscape:pagecheckerboard="0" /><g
     id="g8"
     inkscape:groupmode="layer"
     inkscape:label="ink_ext_XXXXXX"
     transform="matrix(1.3333333,0,0,-1.3333333,0,621.26667)"><g
       id="g10"
       transform="scale(0.1)"><path
         d="m 2280.28,2132.75 c 0,62.19 0.2,121.98 -0.13,181.78 -0.09,17.54 -5.65,24.49 -22.02,24.98 -27.08,0.81 -54.34,1.17 -81.29,-1.1 -23.27,-1.97 -39.81,-15.52 -46.22,-39.02 -12.06,-44.13 -11.49,-88.41 0.72,-132.29 5.66,-20.32 20.6,-33.16 41.68,-33.98 34.87,-1.37 69.84,-0.37 107.26,-0.37 z m 599.61,106.14 c 0.63,0.01 1.25,0.02 1.89,0.03 -0.7,12.76 -0.59,25.62 -2.23,38.25 -4.36,33.64 -23.23,56.96 -56.67,62.71 -23.1,3.96 -47.75,3.43 -71.09,0.32 -30.8,-4.11 -50.91,-23.9 -54.5,-55.29 -3.16,-27.58 -5.23,-55.83 -2.9,-83.37 3.11,-36.89 24.77,-61.37 58.44,-66.84 21.68,-3.52 44.87,-3.47 66.57,0 34.32,5.49 56.94,33.02 60.32,68.29 1.13,11.87 0.17,23.93 0.17,35.9 z m -528.52,107 c 0,-70.78 0,-141.57 0,-213.26 15.49,0 29.62,0 43.76,0 12.06,-0.53 24.53,-2.47 33.14,9.3 6.55,9.9 13.09,19.8 19.62,29.71 1.51,9.28 3,18.57 4.5,27.85 0.29,65 0.57,130 0.84,195 23.65,0.01 47.28,0.01 70.92,0.01 0.28,-61.81 0.57,-123.61 0.85,-185.41 0.42,-16.09 -4.6,-32.68 4.49,-47.96 6.26,-6.81 12.52,-13.62 18.78,-20.42 4.78,-1.65 9.56,-3.3 14.35,-4.95 8.13,-1.02 16.28,-2.03 24.42,-3.03 15.78,0 31.56,0 48.93,0 -6.67,22.62 -16.19,43.65 -15.53,66.83 0.04,23.99 0.08,47.97 0.12,71.95 1.05,20.59 4.3,40.92 12.68,59.72 13.77,30.87 37.67,50.47 70.56,58.9 7.55,1.93 15.01,4.21 22.51,6.32 39.99,0.03 79.97,0.05 119.95,0.08 3.48,-1.68 6.8,-4.22 10.46,-4.88 56.43,-10.3 77.22,-43.51 89.9,-92.64 1.95,-7.55 3.72,-15.15 5.58,-22.72 0.03,-25.57 0.05,-51.13 0.08,-76.71 -6.35,-21.54 -12.69,-43.08 -19.72,-66.97 25.91,0 51.43,0 76.97,0 12.58,-1.41 24.7,-0.84 34.88,8.1 l -0.18,-0.23 c 4.43,5.29 8.87,10.57 13.3,15.85 1.59,3.46 3.17,6.92 4.77,10.37 2.41,15.24 6.8,30.45 6.92,45.7 0.67,86.17 0.29,172.35 0.37,258.53 0.01,8.43 0.69,16.87 1.05,24.69 24.12,0 45.9,0 68.53,0 0,-112.77 0,-223.62 0,-334.47 -4.96,-14.06 -9.91,-28.1 -14.87,-42.15 -8.06,-8.28 -16.12,-16.57 -24.17,-24.86 -1.62,-1.01 -3.25,-2.02 -4.88,-3.03 -7.96,-3.67 -15.93,-7.36 -23.9,-11.03 l 0.34,0.12 c -11.89,-1.69 -23.8,-3.37 -35.69,-5.05 -4.75,0.33 -9.5,0.96 -14.25,0.96 -137.26,0.06 -274.51,0.06 -411.77,0 -5.56,0 -11.1,-0.63 -16.66,-0.96 -21.27,1.42 -42.54,2.83 -63.81,4.25 -4.56,0.45 -10.78,-0.87 -13.42,1.62 -21.62,20.36 -42.62,7.21 -63.82,-0.18 -19.88,-1.91 -39.76,-3.83 -59.64,-5.75 -14.08,0 -28.17,0 -42.5,0 -5.94,-18.9 -11.9,-37.87 -17.85,-56.84 -8.02,-8.31 -16.05,-16.63 -24.07,-24.94 -14.44,-9.86 -30.75,-15.12 -47.5,-19.3 -53.09,-0.81 -106.18,-1.54 -159.26,-2.51 -8.61,-0.16 -17.19,-1.35 -25.79,-2.07 0,0 0.77,0.02 0.76,0.03 -6.94,18.38 -3.38,36.86 -2.32,56.88 42.9,0 84.07,-0.37 125.24,0.21 13.22,0.19 26.41,2.88 39.62,4.43 4.06,1.94 8.12,3.89 12.18,5.84 11.48,1.04 17.4,7.8 19.28,18.72 1.87,5.69 3.75,11.38 6.49,19.64 -41.2,0 -80.45,0 -119.72,0.01 -10.29,1.35 -20.57,2.7 -30.85,4.05 -22.13,1.28 -38.45,13.81 -49.79,30.76 -12.02,17.99 -20.84,38.28 -22.08,60.73 -1.53,12.05 -3.05,24.1 -4.58,36.15 0.03,20.95 0.07,41.9 0.11,62.85 1.51,11.82 3.02,23.63 4.54,35.44 3.62,40.95 39.06,82.23 79.66,85.29 51.38,3.87 103.06,4.25 154.62,4.55 13.75,0.08 27.57,-5.49 41.25,-8.86 1.96,-0.48 3.37,-3.2 5.03,-4.89 5.42,-11.79 10.85,-23.58 16.27,-35.37"
         style="fill:#100f0d;fill-opacity:1;fill-rule:nonzero;stroke:none"
         id="path12" /><path
         d="m 1427.75,2314.17 c 21.11,0.07 42.22,0.13 63.32,0.19 1.33,-8.41 3.75,-16.83 3.8,-25.25 0.35,-53 0.1,-106 0.27,-159 0.02,-7.79 1.24,-15.57 1.91,-23.37 0.03,-40.64 16.18,-56.68 56.82,-56.38 23.66,0.01 47.31,0.03 70.97,0.03 37.2,1.25 47.58,9.88 55.66,46.62 1.78,8.05 3.08,16.21 4.61,24.32 0.68,7.86 1.93,15.72 1.94,23.58 0.15,74.24 0.09,148.48 0.09,222.72 0,8.6 0,17.21 0,26.85 24.11,0 45.93,0 69.55,0 0,-9.28 0,-17.12 0,-24.95 0,-71.84 -0.14,-143.7 0.21,-215.54 0.03,-7.04 2.99,-14.07 4.6,-21.1 38.41,-0.1 76.82,-0.19 115.23,-0.28 9.82,1.42 19.64,2.84 29.46,4.27 15.21,7.91 22.33,22.1 28.63,36.92 1.43,10.87 4.01,21.74 4.09,32.62 0.42,55.75 0.15,111.51 0.26,167.27 0.01,6.89 0.83,13.77 1.26,20.39 23.47,0 45.18,0 68.22,0 0,-9.75 0,-17.66 0,-25.57 0,-55.76 -0.08,-111.52 0.09,-167.28 0.03,-7.84 1.33,-15.67 2.05,-23.51 0,0 -0.04,0.43 -0.04,0.42 -1.95,-10.33 -3.9,-20.65 -5.84,-30.96 -10.93,-33.24 -32.48,-56.14 -65.8,-67.57 -11.67,-1.48 -23.34,-2.97 -35.01,-4.46 -49.48,0 -98.95,0 -149.67,0 -2.41,-9.24 -4.96,-18.98 -7.51,-28.73 -5.38,-7.96 -10.77,-15.91 -16.15,-23.86 -12.17,-8.37 -24.34,-16.75 -36.52,-25.11 -8.38,-1.31 -16.77,-2.62 -25.15,-3.93 -4.42,-0.25 -8.84,-0.51 -13.26,-0.75 -43.16,-0.01 -86.32,-0.02 -129.49,-0.03 -4.69,0.59 -9.41,1.81 -14.09,1.7 -39.52,-0.92 -79.31,30.56 -86.23,68.79 -0.97,5.29 -0.43,10.87 -0.58,16.31 0.01,69.52 -0.04,139.03 0.15,208.55 0.03,8.7 1.4,17.39 2.15,26.08"
         style="fill:#100f0d;fill-opacity:1;fill-rule:nonzero;stroke:none"
         id="path14" /><path
         d="m 3770.7,2237.96 c -0.67,10.25 -0.8,25.5 -2.81,40.5 -4.5,33.41 -24.21,56.66 -57.43,61.99 -22.47,3.61 -46.29,3.4 -68.92,0.4 -31.96,-4.22 -50.34,-25.19 -56.38,-56.98 -6.21,-32.61 -6.5,-65.38 0.27,-97.66 6.05,-28.86 24.21,-47.79 53.84,-54.5 22.95,-5.18 45.82,-5.69 68.89,-0.62 32.91,7.22 55.07,30.49 59.27,63.67 1.6,12.68 1.97,25.5 3.27,43.2 z m -262.88,-182.11 c -5.27,-9.17 -16.68,-15.4 -13.73,-28.53 -1.53,-11.72 -4.04,-23.41 -4.4,-35.16 -0.71,-22.93 -0.21,-45.89 -0.21,-69.57 -24.3,0 -46.18,0 -67.46,0 0,43.69 0,85.92 0,128.14 0.69,14.62 5.96,27.51 14.67,39.11 8.29,7.63 16.58,15.27 24.87,22.91 10.91,4.91 21.82,9.81 32.73,14.73 8.39,1.45 16.78,2.9 25.17,4.35 1.48,1.44 4.47,3.74 4.2,4.2 -13.84,24.3 -13.13,51.42 -15.37,77.96 0.04,14.36 0.07,28.73 0.1,43.1 2.96,19.97 2.9,39.6 9.61,59.95 13.68,41.56 39.05,65.29 80.68,73.99 5.33,1.12 10.4,3.45 15.6,5.22 41.42,-0.55 82.85,-1.1 124.27,-1.65 5.15,-1.38 10.29,-2.81 15.46,-4.14 46.6,-11.89 69.4,-45.26 80.71,-89.12 1.35,-5.21 3.33,-10.26 5.01,-15.38 0.11,-32 0.24,-64 0.36,-95.99 -1.68,-4.3 -4.5,-8.5 -4.87,-12.91 -2.75,-32.82 -21.53,-56.89 -43.15,-79.19 -3.99,-4.13 -10.69,-5.97 -16.44,-7.98 -15.3,-5.35 -30.76,-10.22 -46.16,-15.28 -43.17,-0.05 -86.35,-0.1 -129.54,-0.16 -24.3,2.75 -48.51,4.06 -72.06,-4.74 -6.68,-4.62 -13.37,-9.24 -20.05,-13.86"
         style="fill:#100f0d;fill-opacity:1;fill-rule:nonzero;stroke:none"
         id="path16" /><path
         d="m 3256.37,2075.23 c -21.52,0 -43.04,0 -67.85,0 0,9.93 0,18.36 0,26.79 0,122.28 0.02,244.57 -0.04,366.85 0,8.77 -0.56,17.54 -0.86,26.3 23.46,4.41 46.79,1.94 70.29,2.06 0.4,-6.66 0.75,-9.79 0.75,-12.93 0.04,-130.08 0.07,-260.15 -0.06,-390.23 -0.01,-6.28 -1.45,-12.56 -2.23,-18.84"
         style="fill:#100f0d;fill-opacity:1;fill-rule:nonzero;stroke:none"
         id="path18" /><path
         d="m 3947.57,2075.23 c -21.52,0 -43.04,0 -67.85,0 0,9.93 0,18.36 0,26.79 0,122.28 0.02,244.57 -0.04,366.85 -0.01,8.77 -0.57,17.54 -0.86,26.3 23.47,4.41 46.8,1.94 70.29,2.06 0.4,-6.66 0.75,-9.79 0.75,-12.93 0.03,-130.08 0.07,-260.15 -0.06,-390.23 0,-6.28 -1.45,-12.56 -2.23,-18.84"
         style="fill:#100f0d;fill-opacity:1;fill-rule:nonzero;stroke:none"
         id="path20" /><path
         d="m 1626.58,2495.24 c -0.6,-17.05 -1.21,-34.09 -1.89,-53.37 -23.57,-0.64 -45.28,-1.23 -67.01,-1.82 -0.91,18.6 -1.81,37.19 -2.85,58.57 26.29,-1.24 49.02,-2.31 71.75,-3.38"
         style="fill:#100f0d;fill-opacity:1;fill-rule:nonzero;stroke:none"
         id="path22" /><path
         d="m 2409.71,1976.79 c 0,15.69 0,31.39 0.01,47.09 22.97,9.06 46.35,2.5 70.68,4.17 0,-19.23 0,-36.22 0,-55.44 -24.34,1.67 -47.73,-4.91 -70.69,4.18"
         style="fill:#100f0d;fill-opacity:1;fill-rule:nonzero;stroke:none"
         id="path24" /><path
         d="m 2869.88,2495.51 c 0,-16.52 0,-33.04 0,-49.56 -23.23,-6.1 -46.43,-2.79 -69.7,-1.79 0,19.05 0,36.03 0,55.73 24.31,-1.53 47.01,-2.95 69.7,-4.38"
         style="fill:#100f0d;fill-opacity:1;fill-rule:nonzero;stroke:none"
         id="path26" /><path
         d="m 2001.28,2023.88 c 0,-15.69 0,-31.4 -0.01,-47.09 -22.96,-9.07 -46.35,-2.52 -70.69,-4.17 0,19.23 0,36.22 0,55.43 24.35,-1.67 47.74,4.9 70.7,-4.17"
         style="fill:#100f0d;fill-opacity:1;fill-rule:nonzero;stroke:none"
         id="path28" /><path
         d="m 3944.35,2531.09 c -1.38,-1.2 -2.76,-2.41 -4.13,-3.61 -18.86,0.2 -37.73,0.41 -56.59,0.61 0.05,4.9 0.09,9.8 0.14,14.71 7.1,1.1 14.2,2.2 24.27,3.77 -6.91,3.41 -11.16,5.51 -15.42,7.62 -12.88,10.52 -9.47,23.07 -4.23,38.51 18.36,0 37.01,0 55.66,0 0,-5.76 0,-11.52 0,-17.73 -9.73,-0.56 -17.71,-1.02 -25.7,-1.47 -0.28,-1.68 -0.58,-3.35 -0.86,-5.03 6.04,-1.51 12.06,-3.02 18.1,-4.53 0,0 -0.16,0.1 -0.15,0.1 11.18,-8.76 13.99,-19.79 8.91,-32.95"
         style="fill:#100f0d;fill-opacity:1;fill-rule:nonzero;stroke:none"
         id="path30" /><path
         d="m 2708.11,2497.59 c 21.75,0 42.96,0 65.57,0 0,-17.57 0,-34.69 0,-53.26 -21.32,0 -42.54,0 -65.57,0 0,16.83 0,34.53 0,53.26"
         style="fill:#100f0d;fill-opacity:1;fill-rule:nonzero;stroke:none"
         id="path32" /><path
         d="m 1905.19,1973.58 c -22.28,0 -43.49,0 -66.2,0 0,17.25 0,34.37 0,53.06 21.62,0 43.35,0 66.2,0 0,-17.75 0,-34.87 0,-53.06"
         style="fill:#100f0d;fill-opacity:1;fill-rule:nonzero;stroke:none"
         id="path34" /><path
         d="m 2505.92,1973.9 c 0,18.16 0,35.26 0,53.31 22.4,0 43.6,0 66.19,0 0,-17.65 0,-34.76 0,-53.31 -21.4,0 -42.61,0 -66.19,0"
         style="fill:#100f0d;fill-opacity:1;fill-rule:nonzero;stroke:none"
         id="path36" /><g
         id="g38"><g
           id="g40"
           clip-path="url(#clipPath44)"><path
             d="m 1895.9,3769.29 c 0,0 286.48,617.95 1089.47,774.24 0,0 1091.11,-40.24 1597.89,-1222.96 362.61,-904.41 -97.85,-1679.28 -168.16,-1749.59 0,0 382.54,1360.47 -1050.58,2034.55 0,0 -602.79,336.92 -1468.62,163.76"
             style="fill:url(#linearGradient56);fill-opacity:1;fill-rule:nonzero;stroke:none"
             id="path58" /></g></g><path
         d="m 2990.23,4225.57 50.39,65 6.87,-88.75 67.49,-30.15 -63.71,-23.26 -11.04,-90.89 -41.38,77.58 -75.53,-21.42 42.55,61.4 -52.47,84.88 76.83,-34.39"
         style="fill:#ffffff;fill-opacity:1;fill-rule:nonzero;stroke:none"
         id="path60" /><path
         d="m 2877.64,4374.79 c 0,0 -151.9,-105.48 -98.89,-272.2 53.01,-166.73 195.28,-166.7 249.43,-172.89 0,0 -262.3,-99.67 -334.8,176.48 -16.04,53.8 4.26,233.73 184.26,268.61"
         style="fill:#ffffff;fill-opacity:1;fill-rule:nonzero;stroke:none"
         id="path62" /><g
         id="g64"><g
           id="g66"
           clip-path="url(#clipPath70)"><path
             d="m 1150.78,3467.26 c 0,0 276.33,194 745.12,302.04 0,0 305.45,621.59 1089.47,774.23 0,0 -739.72,88.8 -1328.43,-325.17 0,0 -379.89,-371.62 -506.16,-751.1"
             style="fill:url(#linearGradient80);fill-opacity:1;fill-rule:nonzero;stroke:none"
             id="path82" /></g></g><g
         id="g84"><g
           id="g86"
           clip-path="url(#clipPath90)"><path
             d="m 1656.94,4218.36 c 0,0 -1075.186,-985.73 -544.89,-2456.16 466.35,-918.981 884.46,-1200.591 1711.5,-1430.38 0,0 -1379.19,-11.5 -1993.179,1296.55 -613.988,1308.06 409.619,2398.37 826.569,2589.99"
             style="fill:url(#linearGradient100);fill-opacity:1;fill-rule:nonzero;stroke:none"
             id="path102" /></g></g><g
         id="g104"><g
           id="g106"
           clip-path="url(#clipPath110)"><path
             d="m 1002.84,1013.26 c 0,0 -1015.7931,1349.18 -189.91,2611.92 275.29,489.8 758.53,895.42 1877.5,1004.96 0,0 -1748.875,331.92 -2369.071,-1235.15 0,0 -534.324,-1385.51 681.481,-2381.73"
             style="fill:url(#linearGradient120);fill-opacity:1;fill-rule:nonzero;stroke:none"
             id="path122" /></g></g><g
         id="g124"><g
           id="g126"
           clip-path="url(#clipPath130)"><path
             d="m 100.684,3002.28 c 0,0 -222.196,-1612.5 1266.786,-2431.069 C 2030.58,250.27 2509.22,68.9609 3614.6,413.742 c 0,0 -1276.86,-950.902 -2626.912,30.457 C -362.363,1425.57 44.9063,2694.3 100.684,3002.28"
             style="fill:url(#linearGradient142);fill-opacity:1;fill-rule:nonzero;stroke:none"
             id="path144" /></g></g></g></g></svg>
